# xmcd
#
# Track frame offsets:
#	150
#	10687
#	22987
#	35624
#	45411
#	54244
#	64669
#	76669
#	86961
#	98323
#
# Disc length: 1439 seconds
#
# Revision: 1
# Processed by: cddbd v1.5.2PL0 Copyright (c) Steve Scherf et al.
# Submitted via: audiograbber 1.83.01
#
DISCID=62059d0a
DTITLE=Red Sovine - The Sensational Red Sovine
DYEAR=1996
DGENRE=Country
TTITLE0=She Can't Read My Writing
TTITLE1=Brand New Low
TTITLE2=Thanks For Nothin'
TTITLE3=Hold Everything
TTITLE4=Trucker's Ramble
TTITLE5=Rose of Love
TTITLE6=One Is A Lonely Number
TTITLE7=No Money In This Deal
TTITLE8=Invitation To The Blues
TTITLE9=Long Time To Forget
EXTD=
EXTT0=
EXTT1=
EXTT2=
EXTT3=
EXTT4=
EXTT5=
EXTT6=
EXTT7=
EXTT8=
EXTT9=
PLAYORDER=
